<svg width="52" height="52" viewBox="0 0 52 52" fill="none" xmlns="http://www.w3.org/2000/svg">
<g filter="url(#filter0_d_336_1449)">
<rect x="8" y="6" width="36" height="36" rx="10" fill="#F3F4F6"/>
<path d="M27.5 16.5H21.5C21.1022 16.5 20.7206 16.658 20.4393 16.9393C20.158 17.2206 20 17.6022 20 18V30C20 30.3978 20.158 30.7794 20.4393 31.0607C20.7206 31.342 21.1022 31.5 21.5 31.5H30.5C30.8978 31.5 31.2794 31.342 31.5607 31.0607C31.842 30.7794 32 30.3978 32 30V21M27.5 16.5L32 21M27.5 16.5V21H32M29 24.75H23M29 27.75H23" stroke="#6B7280" stroke-width="2" stroke-linecap="round" stroke-linejoin="round"/>
</g>
<defs>
<filter id="filter0_d_336_1449" x="0" y="0" width="52" height="52" filterUnits="userSpaceOnUse" color-interpolation-filters="sRGB">
<feFlood flood-opacity="0" result="BackgroundImageFix"/>
<feColorMatrix in="SourceAlpha" type="matrix" values="0 0 0 0 0 0 0 0 0 0 0 0 0 0 0 0 0 0 127 0" result="hardAlpha"/>
<feOffset dy="2"/>
<feGaussianBlur stdDeviation="4"/>
<feColorMatrix type="matrix" values="0 0 0 0 0 0 0 0 0 0 0 0 0 0 0 0 0 0 0.06 0"/>
<feBlend mode="normal" in2="BackgroundImageFix" result="effect1_dropShadow_336_1449"/>
<feBlend mode="normal" in="SourceGraphic" in2="effect1_dropShadow_336_1449" result="shape"/>
</filter>
</defs>
</svg>
