<svg width="52" height="52" viewBox="0 0 52 52" fill="none" xmlns="http://www.w3.org/2000/svg">
<g filter="url(#filter0_d_336_1442)">
<rect x="8" y="6" width="36" height="36" rx="10" fill="#EFF6FF"/>
<g clip-path="url(#clip0_336_1442)">
<path d="M24.5 24.75C24.8221 25.1806 25.233 25.5369 25.7049 25.7947C26.1768 26.0525 26.6987 26.2058 27.235 26.2442C27.7714 26.2826 28.3097 26.2052 28.8135 26.0173C29.3174 25.8294 29.7749 25.5353 30.155 25.155L32.405 22.905C33.0881 22.1977 33.4661 21.2505 33.4576 20.2672C33.449 19.284 33.0546 18.3434 32.3593 17.6482C31.6641 16.9529 30.7235 16.5585 29.7403 16.5499C28.757 16.5414 27.8098 16.9194 27.1025 17.6025L25.8125 18.885M27.5 23.25C27.1779 22.8194 26.767 22.4631 26.2951 22.2053C25.8232 21.9475 25.3014 21.7941 24.765 21.7557C24.2287 21.7173 23.6903 21.7947 23.1865 21.9826C22.6827 22.1706 22.2252 22.4647 21.845 22.845L19.595 25.095C18.9119 25.8022 18.534 26.7495 18.5425 27.7327C18.551 28.716 18.9454 29.6565 19.6407 30.3518C20.336 31.0471 21.2765 31.4415 22.2598 31.45C23.243 31.4585 24.1903 31.0806 24.8975 30.3975L26.18 29.115" stroke="#3B82F6" stroke-width="2" stroke-linecap="round" stroke-linejoin="round"/>
</g>
</g>
<defs>
<filter id="filter0_d_336_1442" x="0" y="0" width="52" height="52" filterUnits="userSpaceOnUse" color-interpolation-filters="sRGB">
<feFlood flood-opacity="0" result="BackgroundImageFix"/>
<feColorMatrix in="SourceAlpha" type="matrix" values="0 0 0 0 0 0 0 0 0 0 0 0 0 0 0 0 0 0 127 0" result="hardAlpha"/>
<feOffset dy="2"/>
<feGaussianBlur stdDeviation="4"/>
<feColorMatrix type="matrix" values="0 0 0 0 0 0 0 0 0 0 0 0 0 0 0 0 0 0 0.06 0"/>
<feBlend mode="normal" in2="BackgroundImageFix" result="effect1_dropShadow_336_1442"/>
<feBlend mode="normal" in="SourceGraphic" in2="effect1_dropShadow_336_1442" result="shape"/>
</filter>
<clipPath id="clip0_336_1442">
<rect width="18" height="18" fill="white" transform="translate(17 15)"/>
</clipPath>
</defs>
</svg>
